<?xml version="1.0" encoding="UTF-8" standalone="no"?>
<svg width="260px" height="260px" viewBox="0 0 260 260" version="1.1" xmlns="http://www.w3.org/2000/svg" xmlns:xlink="http://www.w3.org/1999/xlink" xmlns:sketch="http://www.bohemiancoding.com/sketch/ns">
    <!-- Generator: Sketch 3.0.4 (8053) - http://www.bohemiancoding.com/sketch -->
    <title>Kefir</title>
    <desc>Created with Sketch.</desc>
    <defs></defs>
    <g id="Page-1" stroke="none" stroke-width="1" fill="none" fill-rule="evenodd" sketch:type="MSPage">
        <rect id="Rectangle-1" fill="#CFCFCF" sketch:type="MSShapeGroup" x="0" y="0" width="260" height="260"></rect>
        <g id="Path-6-+-Path" sketch:type="MSLayerGroup" transform="translate(11.000000, 22.000000)">
            <path d="M66.5,208 L171.004785,208 L210,62 L38.5,93 L66.5,208 Z" id="Path-6" fill="#FFFFFF" sketch:type="MSShapeGroup"></path>
            <path d="M55.8379072,216 L1.19369327,2.88756583 L0.453291778,0 L20.067939,0 L74.5983067,212.668434 L75.4525544,216 L55.8379072,216 L55.8379072,216 Z M182.954093,216 L237.598307,2.88756583 L238.338708,-1.42108547e-14 L218.724061,-3.15544362e-30 L164.193693,212.668434 L163.339446,216 L182.954093,216 L182.954093,216 Z M186.728,73.056 L176.36,58.656 C174.631991,61.1520125 172.904009,63.695987 171.176,66.288 C169.447991,68.880013 167.57601,71.2319894 165.56,73.344 C163.54399,75.4560106 161.336012,77.1839933 158.936,78.528 C156.535988,79.8720067 153.896014,80.544 151.016,80.544 C147.175981,80.544 142.664026,79.2000134 137.48,76.512 C132.295974,73.8239866 127.016027,71.3280115 121.64,69.024 C116.071972,66.5279875 110.600027,64.3680091 105.224,62.544 C99.8479731,60.7199909 94.664025,59.808 89.672,59.808 C84.871976,59.808 80.6000187,60.5279928 76.856,61.968 C73.1119813,63.4080072 69.7520149,65.2799885 66.776,67.584 C63.7999851,69.8880115 61.2560106,72.5279851 59.144,75.504 C57.0319894,78.4800149 55.2080077,81.5039846 53.672,84.576 L64.04,98.976 C65.1920058,96.4799875 66.4879928,93.936013 67.928,91.344 C69.3680072,88.751987 71.0959899,86.4000106 73.112,84.288 C75.1280101,82.1759894 77.3839875,80.4480067 79.88,79.104 C82.3760125,77.7599933 85.1599846,77.088 88.232,77.088 C94.9520336,77.088 100.999973,78.287988 106.376,80.688 C111.752027,83.088012 116.743977,85.6319866 121.352,88.32 C126.152024,91.0080134 130.903976,93.2639909 135.608,95.088 C140.312024,96.9120091 145.351973,97.824 150.728,97.824 C155.144022,97.824 159.127982,97.1040072 162.68,95.664 C166.232018,94.2239928 169.447986,92.3520115 172.328,90.048 C175.208014,87.7439885 177.799988,85.1040149 180.104,82.128 C182.408012,79.1519851 184.615989,76.1280154 186.728,73.056 L186.728,73.056 Z" id="Path" fill="#000000" sketch:type="MSShapeGroup"></path>
        </g>
    </g>
</svg>